<svg xmlns="http://www.w3.org/2000/svg" viewBox="0 0 128 128" width="128" height="128">
  <defs>
    <radialGradient id="g" cx="0.5" cy="0.5" r="0.5">
      <stop offset="0%" stop-color="#0d1b2a"/>
      <stop offset="100%" stop-color="#0a1620"/>
    </radialGradient>
  </defs>
  <rect width="128" height="128" rx="22" fill="url(#g)"/>
  <rect x="1" y="1" width="126" height="126" rx="21" fill="none" stroke="#22c55e" stroke-opacity="0.1" stroke-width="1"/>
  <path d="
    M 22,66
    L 46,66
    C 48,66 52,52 56,52
    C 58,52 62,66 64,66
    L 72,66
    C 74,66 76,54 80,34
    C 82,24 84,20 86,18
    C 88,20 90,24 92,34
    C 96,54 98,66 100,66
    L 106,66
  " fill="none" stroke="#22c55e" stroke-width="3.5" stroke-linecap="round" stroke-linejoin="round"/>
  <circle cx="86" cy="18" r="2.5" fill="#22c55e" opacity="0.7"/>
</svg>
